Coordinates
version=1
nRows=29
nColumns=24
inDegrees=yes

Units are S.I. units (second, meters, Newtons, ...)
Angles are in degrees.

endheader
time	pelvis_tilt	pelvis_list	pelvis_rotation	pelvis_tx	pelvis_ty	pelvis_tz	hip_flexion_r	hip_adduction_r	hip_rotation_r	knee_angle_r	ankle_angle_r	subtalar_angle_r	mtp_angle_r	hip_flexion_l	hip_adduction_l	hip_rotation_l	knee_angle_l	ankle_angle_l	subtalar_angle_l	mtp_angle_l	lumbar_extension	lumbar_bending	lumbar_rotation
      0.48800000	     -3.81885076	     -0.91246804	      6.23987633	     -0.79095115	      1.01452955	      0.31896169	     22.04124152	      1.50333855	     -9.53054039	      4.71039129	      0.22324739	     -2.92244921	      3.56293964	     -8.66485809	      2.93563137	      8.88222016	    -11.65678127	     12.88121928	     -8.44440833	     -1.39627334	     -2.84774784	     -2.06969044	     -5.91876219
      0.49216667	     -3.83608972	     -1.01024909	      6.28795371	     -0.78514705	      1.01383368	      0.31905719	     22.13340524	      1.65363764	     -9.40314604	      4.33477809	      0.14588296	     -3.05223522	      3.58575358	     -8.65566015	      2.81965049	      8.82289063	    -12.33019561	     13.02039366	     -8.27630926	     -1.36700551	     -2.77086080	     -1.92511970	     -5.88789349
      0.49633333	     -3.83025362	     -1.11581022	      6.32373318	     -0.77930682	      1.01318869	      0.31916051	     22.19961139	      1.81695689	     -9.20231526	      3.90441724	     -0.03458017	     -3.36155594	      3.63315581	     -8.65625652	      2.69344233	      8.71640895	    -13.03405816	     13.14249883	     -8.08113866	     -1.31705420	     -2.72183901	     -1.76458254	     -5.86456837
      0.50050000	     -3.79822413	     -1.21927677	      6.35689351	     -0.77342699	      1.01260684	      0.31926823	     22.23792745	      1.98119867	     -8.96835054	      3.42102062	     -0.30807295	     -3.81071446	      3.73313821	     -8.65509802	      2.56492632	      8.56012801	    -13.79911512	     13.24848749	     -7.82473916	     -1.21632192	     -2.70069652	     -1.62815348	     -5.83848976
      0.50466667	     -3.78373427	     -1.34869160	      6.39564133	     -0.76749780	      1.01203690	      0.31932940	     22.29973352	      2.16092477	     -8.74581903	      2.87622416	     -0.58837900	     -4.22102115	      3.82576215	     -8.62524908	      2.41990203	      8.47414617	    -14.58471439	     13.29369458	     -7.68907290	     -1.12170841	     -2.64126914	     -1.41274528	     -5.81744612
      0.50883333	     -3.70919629	     -1.46124518	      6.42746490	     -0.76155941	      1.01158896	      0.31942963	     22.29217515	      2.33674052	     -8.46474884	      2.30449459	     -0.98471433	     -4.83014087	      3.98831487	     -8.62430560	      2.27643849	      8.28155006	    -15.43296674	     13.35569402	     -7.40362904	     -0.94752437	     -2.65936444	     -1.26018469	     -5.79544891
      0.51300000	     -3.69851444	     -1.60306052	      6.46157926	     -0.75555899	      1.01106938	      0.31949014	     22.36280203	      2.52666006	     -8.21385624	      1.67342270	     -1.37700403	     -5.34782797	      4.12356777	     -8.54064363	      2.11825369	      8.15228242	    -16.31025024	     13.32942461	     -7.23979730	     -0.79313271	     -2.58410976	     -1.02820346	     -5.77478750
      0.51716667	     -3.59884733	     -1.72157964	      6.49182482	     -0.74955627	      1.01071683	      0.31959294	     22.32761847	      2.71100548	     -7.89991063	      1.03711094	     -1.86787710	     -6.08420781	      4.33144370	     -8.52211265	      1.96308729	      7.92567303	    -17.24250270	     13.32682072	     -6.95095733	     -0.53235790	     -2.62194299	     -0.86025002	     -5.75166306
      0.52133333	     -3.55056484	     -1.84734766	      6.52348920	     -0.74352695	      1.01031248	      0.31968154	     22.35781857	      2.89102777	     -7.60608850	      0.35212601	     -2.36550054	     -6.76361311	      4.53850401	     -8.42587941	      1.80978057	      7.72998291	    -18.21827178	     13.24264294	     -6.73097286	     -0.24605119	     -2.58758346	     -0.66465688	     -5.73039774
      0.52550000	     -3.44255606	     -1.99627876	      6.55614672	     -0.73742502	      1.01005181	      0.31976528	     22.31342302	      3.10155086	     -7.34837696	     -0.32794810	     -2.92346061	     -7.43588916	      6.63622307	     -8.38166721	      1.61687608	      7.49984016	    -19.19316017	     13.01642909	     -6.54921944	      2.91082607	     -2.61661614	     -0.41773014	     -5.68546731
      0.52966667	     -3.38058377	     -2.12299690	      6.59126802	     -0.73134249	      1.00975723	      0.31988059	     22.32532607	      3.28429667	     -7.05666737	     -1.04666272	     -3.46294820	     -8.14366098	      6.64168632	     -8.25035145	      1.44740716	      7.24732162	    -20.24543148	     12.82766877	     -6.27902991	      2.98352513	     -2.59488959	     -0.23020778	     -5.69360268
      0.53383333	     -3.27151882	     -2.25892689	      6.62216915	     -0.72522429	      1.00957293	      0.32001250	     22.27593422	      3.48559761	     -6.75685645	     -1.75667016	     -4.02895654	     -8.87848016	      6.65508365	     -8.14917178	      1.25445498	      6.95636808	    -21.32568042	     12.58436733	     -6.00066366	      3.12531383	     -2.62226080	     -0.01240619	     -5.66747149
      0.53800000	     -3.19123805	     -2.39062380	      6.65488609	     -0.71909585	      1.00938638	      0.32016448	     22.26083633	      3.67830543	     -6.46572242	     -2.48864582	     -4.57365723	     -9.59186377	      6.67143729	     -7.98849590	      1.06221000	      6.65133043	    -22.45177188	     12.27432544	     -5.72754091	      3.33239841	     -2.61471477	      0.18936285	     -5.64672097
      0.54216667	     -3.07689161	     -2.52264089	      6.68633453	     -0.71294249	      1.00930214	      0.32034814	     22.19937475	      3.87845581	     -6.17179219	     -3.21255040	     -5.10926351	    -10.30517495	      6.68616503	     -7.84253139	      0.85183927	      6.30477480	    -23.59799126	     11.89387529	     -5.42269383	      3.62364514	     -2.64841791	      0.39399814	     -5.61585176
      0.54633333	     -2.97786389	     -2.65202865	      6.71600258	     -0.70677639	      1.00923719	      0.32055312	     22.15568888	      4.07459647	     -5.89272815	     -3.95236561	     -5.60373108	    -10.97459472	      6.69350403	     -7.65327057	      0.63669490	      5.93555776	    -24.78202065	     11.45215760	     -5.11227052	      3.98883135	     -2.65787869	      0.59079777	     -5.58715628
      0.55050000	     -2.84068537	     -2.79236258	      6.74776178	     -0.70059157	      1.00928775	      0.32078670	     22.06000462	      4.28860791	     -5.62624994	     -4.67793676	     -6.06752127	    -11.62325473	      6.68727161	     -7.47908900	      0.39008045	      5.53385704	    -25.99750453	     10.90817856	     -4.79891790	      4.46414573	     -2.71346113	      0.80513140	     -5.55181567
      0.55466667	     -2.71410129	     -2.92147253	      6.77380133	     -0.69441244	      1.00934960	      0.32105980	     21.97880948	      4.49241041	     -5.36728259	     -5.42211432	     -6.45833789	    -12.22388028	      6.66243890	     -7.26657432	      0.14371190	      5.10129761	    -27.24589076	     10.30554654	     -4.47520851	      5.07464967	     -2.75787219	      0.99667235	     -5.50867307
      0.55883333	     -2.48812189	     -3.05850732	      6.81174945	     -0.68817818	      1.00965415	      0.32131180	     21.76102369	      4.71421935	     -5.13103038	     -6.12518529	     -6.71157207	    -12.73849147	      6.32853657	     -7.16648008	     -0.12543936	      4.72176782	    -28.44012701	      9.36413093	     -4.41080664	     10.38904335	     -2.92759272	      1.22466626	     -5.46650234
      0.56300000	     -2.41008004	     -3.18684051	      6.85057097	     -0.68200028	      1.00975488	      0.32159873	     21.74688816	      4.89476541	     -5.03061024	     -6.92349769	     -6.90627913	    -13.03006240	      6.30711245	     -6.83624859	     -0.39291299	      4.26349596	    -29.76874789	      8.60623142	     -4.06602933	     10.48764002	     -2.90110270	      1.39473987	     -5.44395685
      0.56716667	     -2.25446770	     -3.31743427	      6.88269043	     -0.67578820	      1.01002995	      0.32191496	     21.61107534	      5.09798150	     -4.86759744	     -7.65663987	     -7.00441366	    -13.32407319	      6.28217548	     -6.58837805	     -0.67578577	      3.82630923	    -31.07465628	      7.65693220	     -3.85204576	     10.59102910	     -2.97602965	      1.58216159	     -5.41062149
      0.57133333	     -2.01585835	     -3.45104600	      6.91129242	     -0.66957596	      1.01047100	      0.32229471	     21.35296742	      5.33525887	     -4.61358438	     -8.32431711	     -7.16314818	    -13.93224318	      5.64713067	     -6.41153078	     -0.99088592	      3.35862809	    -32.37952370	      6.61481746	     -3.70253489	     13.29786968	     -3.16684838	      1.79313660	     -5.33438593
      0.57550000	     -1.91741682	     -3.57801016	      6.93986428	     -0.66340112	      1.01072354	      0.32267686	     21.29506180	      5.52196127	     -4.56848197	     -9.10891684	     -7.08544617	    -14.03940423	      5.61554960	     -6.02589339	     -1.30210251	      2.85461242	    -33.78028814	      5.59905873	     -3.38811367	     13.42322842	     -3.16580349	      1.95356492	     -5.28738162
      0.57966667	     -1.71912185	     -3.70574203	      6.98685799	     -0.65721624	      1.01120272	      0.32302598	     21.08622465	      5.72212545	     -4.52026335	     -9.80975299	     -6.97341777	    -14.22171432	      5.60257427	     -5.74154119	     -1.62853268	      2.40008803	    -35.15314854	      4.42624881	     -3.22870064	     13.46192577	     -3.29486203	      2.15194538	     -5.26089518
      0.58383333	     -1.54085326	     -3.84987738	      7.00583432	     -0.65101971	      1.01167396	      0.32346691	     20.87721273	      5.95629548	     -4.39539985	    -10.47305628	     -6.81090010	    -14.37871487	      5.57178743	     -5.41345079	     -1.98399623	      1.91821374	    -36.54449574	      3.17243509	     -3.06832062	     13.55370631	     -3.40372288	      2.32953183	     -5.21117405
      0.58800000	     -1.36245262	     -3.98269713	      7.02144983	     -0.64486644	      1.01216869	      0.32391162	     20.67492378	      6.17276475	     -4.34823508	    -11.16464663	     -6.45817783	    -14.39191464	      4.25977590	     -5.05798223	     -2.34219291	      1.41868095	    -37.94955810	      1.81123461	     -2.97952828	     17.17500871	     -3.51381355	      2.52188775	     -5.01470453
      0.59216667	     -1.19430259	     -4.11687922	      7.04840862	     -0.63872336	      1.01269493	      0.32436985	     20.43805809	      6.39549334	     -4.26907880	    -11.75151195	     -6.25593907	    -14.55590297	      4.25872298	     -4.66386429	     -2.71009278	      0.94898723	    -39.37564780	      0.40825051	     -2.86738555	     17.17050659	     -3.61275980	      2.69330197	     -5.02738677
      0.59633333	     -1.01894589	     -4.24311999	      7.05944122	     -0.63261915	      1.01326760	      0.32483328	     20.19045846	      6.61186870	     -4.21972174	    -12.34307624	     -5.94789730	    -14.62238683	      4.23254760	     -4.26307796	     -3.06365719	      0.50588574	    -40.79526165	     -1.06483325	     -2.92502074	     17.19835708	     -3.73409743	      2.86332438	     -4.97155872
      0.60050000	     -0.85269493	     -4.36930796	      7.07241909	     -0.62654574	      1.01383791	      0.32531356	     19.93139984	      6.82691424	     -4.19500268	    -12.89228179	     -5.58084155	    -14.62343881	      4.19331021	     -3.82612769	     -3.43010551	      0.06691017	    -42.22922300	     -2.56479936	     -2.93819283	     17.22418974	     -3.84580277	      3.02972342	     -4.89612716
      0.60466667	     -0.68453357	     -4.50118394	      7.08388750	     -0.62050276	      1.01443936	      0.32579238	     19.64860280	      7.04906034	     -4.18741197	    -13.39545159	     -5.19336142	    -14.59685563	      4.14318460	     -3.37379207	     -3.80276613	     -0.33845284	    -43.65789976	     -4.09016284	     -3.00537477	     17.23194453	     -3.95830442	      3.19823803	     -4.81733818
